<svg xmlns="http://www.w3.org/2000/svg" width="20.308" height="24.897" viewBox="0 0 20.308 24.897">
  <path id="spec_check" d="M23.943,12.487a.882.882,0,0,0,.881-.883v-.64a.881.881,0,0,0-.881-.883h-4.4V1.007a.882.882,0,0,0-.882-.883H10.677a.882.882,0,0,0-.883.883v9.074h-1.5V.883A.883.883,0,0,0,7.411,0H5.252V1.766H6.528V10.08H5.4a.883.883,0,0,0-.883.883V11.6a.883.883,0,0,0,.883.883h4.4v5.222H8.766V13.784a.882.882,0,0,0-.883-.884H5.4a.883.883,0,0,0-.883.884V24.015A.881.881,0,0,0,5.4,24.9H7.883a.881.881,0,0,0,.883-.882V20.09h11.81v3.926a.881.881,0,0,0,.882.882h2.485a.88.88,0,0,0,.881-.882V13.786a.881.881,0,0,0-.881-.884H21.457a.882.882,0,0,0-.882.884v3.923H19.546V12.487ZM11.561,13.895a1.268,1.268,0,1,1-.717,1.142A1.272,1.272,0,0,1,11.561,13.895Zm6.219,2.283a1.268,1.268,0,1,1,.715-1.141A1.266,1.266,0,0,1,17.78,16.178ZM11.561,1.89H17.78V9.42H11.561Z" transform="translate(-4.516)" fill="#fff"/>
</svg>
