<svg xmlns="http://www.w3.org/2000/svg" width="71" height="79.886" viewBox="0 0 71 79.886">
  <g id="Path_1" data-name="Path 1" transform="translate(-68.474 -37.252)" fill="#186db6" stroke-miterlimit="10">
    <path d="M 74.3226318359375 115.638313293457 C 73.21983337402344 115.6383666992188 72.12517547607422 115.202278137207 71.31934356689453 114.4418563842773 C 70.45178985595703 113.623176574707 69.9739990234375 112.5066680908203 69.9739990234375 111.2980041503906 L 69.9739990234375 44.40800094604492 C 69.9739990234375 41.28926849365234 72.51126861572266 38.75200271606445 75.62999725341797 38.75200271606445 L 132.3179931640625 38.75200271606445 C 135.4367370605469 38.75200271606445 137.9739990234375 41.28926849365234 137.9739990234375 44.40800094604492 L 137.9739990234375 101.0960006713867 C 137.9739990234375 104.2147369384766 135.4367370605469 106.7519989013672 132.3179931640625 106.7519989013672 L 86.78236389160156 106.7519989013672 L 77.04061889648438 114.6633911132813 C 76.25530242919922 115.3011474609375 75.3154296875 115.6382675170898 74.3226318359375 115.638313293457 Z" stroke="none"/>
    <path d="M 74.32255554199219 114.138313293457 C 74.93022155761719 114.1382827758789 75.55207824707031 113.9399032592773 76.09500122070313 113.4990005493164 L 86.25 105.2519989013672 L 132.3179931640625 105.2519989013672 C 134.6130218505859 105.2519989013672 136.4739990234375 103.390998840332 136.4739990234375 101.0960006713867 L 136.4739990234375 44.40800094604492 C 136.4739990234375 42.11300277709961 134.6130218505859 40.25200271606445 132.3179931640625 40.25200271606445 L 75.62999725341797 40.25200271606445 C 73.33499908447266 40.25200271606445 71.4739990234375 42.11300277709961 71.4739990234375 44.40800094604492 L 71.4739990234375 111.2980041503906 C 71.4739990234375 112.9852523803711 72.85735321044922 114.1383895874023 74.32255554199219 114.138313293457 M 74.32273101806641 117.1383209228516 L 74.32270050048828 117.1383209228516 C 72.81931304931641 117.1383895874023 71.38710021972656 116.5681991577148 70.28986358642578 115.5327987670898 C 69.11888122558594 114.4278030395508 68.4739990234375 112.9238510131836 68.4739990234375 111.2980041503906 L 68.4739990234375 44.40800094604492 C 68.4739990234375 40.4621696472168 71.68416595458984 37.25200271606445 75.62999725341797 37.25200271606445 L 132.3179931640625 37.25200271606445 C 136.2638397216797 37.25200271606445 139.4739990234375 40.4621696472168 139.4739990234375 44.40800094604492 L 139.4739990234375 101.0960006713867 C 139.4739990234375 105.0418319702148 136.2638397216797 108.2519989013672 132.3179931640625 108.2519989013672 L 87.31472778320313 108.2519989013672 L 77.98622894287109 115.8277893066406 C 76.93058013916016 116.6850662231445 75.66376495361328 117.1382522583008 74.32273101806641 117.1383209228516 Z" stroke="none" fill="#fff"/>
  </g>
</svg>
