<svg width="128" height="128" viewBox="0 0 128 128" fill="none" xmlns="http://www.w3.org/2000/svg">
<g filter="url(#filter0_d)">
<circle cx="64" cy="60" r="60" fill="white"/>
<circle cx="64" cy="60" r="59.5" stroke="#C7C7C7"/>
</g>
<path d="M82.2496 60.0755C83.2086 60.0755 83.9836 59.2965 83.9836 58.3375V57.0775C83.9836 56.1165 83.2086 55.3395 82.2496 55.3395H73.5976V37.4825C73.5976 36.5225 72.8206 35.7455 71.8616 35.7455H56.1426C55.1826 35.7455 54.4056 36.5225 54.4056 37.4825V55.3405H51.4516V37.2385C51.4516 36.2795 50.6746 35.5005 49.7146 35.5005H45.4656V38.9765H47.9756V55.3385H45.7556C44.7966 55.3385 44.0176 56.1145 44.0176 57.0755V58.3365C44.0176 59.2955 44.7946 60.0735 45.7556 60.0735H54.4056V70.3505H52.3806V62.6285C52.3806 61.6665 51.6036 60.8895 50.6436 60.8895H45.7546C44.7956 60.8895 44.0166 61.6665 44.0166 62.6285V82.7645C44.0166 83.7255 44.7936 84.4995 45.7546 84.4995H50.6426C51.6026 84.4995 52.3796 83.7255 52.3796 82.7645V75.0385H75.6226V82.7645C75.6226 83.7255 76.3996 84.4995 77.3586 84.4995H82.2496C83.2086 84.4995 83.9836 83.7255 83.9836 82.7645V62.6315C83.9836 61.6685 83.2086 60.8915 82.2496 60.8915H77.3586C76.3996 60.8915 75.6226 61.6685 75.6226 62.6315V70.3525H73.5976V60.0755H82.2496ZM57.8816 62.8465C58.2146 62.6845 58.5836 62.5815 58.9816 62.5815C60.3686 62.5815 61.4916 63.7045 61.4916 65.0945C61.4916 66.4815 60.3686 67.6045 58.9816 67.6045C58.5846 67.6045 58.2146 67.5035 57.8816 67.3405C57.0496 66.9325 56.4706 66.0815 56.4706 65.0945C56.4706 64.1045 57.0496 63.2545 57.8816 62.8465ZM70.1206 67.3405C69.7886 67.5035 69.4176 67.6045 69.0176 67.6045C67.6336 67.6045 66.5086 66.4815 66.5086 65.0945C66.5086 63.7065 67.6336 62.5835 69.0176 62.5835C69.4146 62.5835 69.7886 62.6845 70.1206 62.8485C70.9546 63.2575 71.5286 64.1065 71.5286 65.0945C71.5286 66.0835 70.9506 66.9305 70.1206 67.3405ZM57.8816 39.2195H70.1206V54.0405H57.8816V39.2195Z" fill="#186DB6"/>
<defs>
<filter id="filter0_d" x="0" y="0" width="128" height="128" filterUnits="userSpaceOnUse" color-interpolation-filters="sRGB">
<feFlood flood-opacity="0" result="BackgroundImageFix"/>
<feColorMatrix in="SourceAlpha" type="matrix" values="0 0 0 0 0 0 0 0 0 0 0 0 0 0 0 0 0 0 127 0"/>
<feOffset dy="4"/>
<feGaussianBlur stdDeviation="2"/>
<feColorMatrix type="matrix" values="0 0 0 0 0 0 0 0 0 0 0 0 0 0 0 0 0 0 0.25 0"/>
<feBlend mode="normal" in2="BackgroundImageFix" result="effect1_dropShadow"/>
<feBlend mode="normal" in="SourceGraphic" in2="effect1_dropShadow" result="shape"/>
</filter>
</defs>
</svg>
