<svg width="128" height="128" viewBox="0 0 128 128" fill="none" xmlns="http://www.w3.org/2000/svg">
<g filter="url(#filter0_d)">
<circle cx="64" cy="60" r="60" fill="white"/>
<circle cx="64" cy="60" r="59.5" stroke="#C7C7C7"/>
</g>
<path d="M94.7641 62.8287C94.7641 61.6184 94.4909 60.4624 93.9974 59.4049C93.9466 59.136 93.8884 58.8676 93.8157 58.5953L88.4709 45.3495L88.4348 45.2303C86.5647 39.6622 83.9039 34.5088 77.1568 34.5088H51.3602C44.4468 34.5088 42.0038 39.7899 40.0928 45.1994L34.5021 58.4775C33.6939 59.7724 33.2344 61.2538 33.2344 62.8287V66.9504C33.2344 67.5876 33.3097 68.211 33.4529 68.8114C33.3137 69.1741 33.2344 69.565 33.2344 69.9771V82.236C33.2344 84.0336 34.6917 85.4911 36.4893 85.4911H43.2438C45.0404 85.4911 46.4977 84.0336 46.4977 82.236V76.1057H81.8866V82.236C81.8866 84.0336 83.3442 85.4911 85.1419 85.4911H91.5096C93.3079 85.4911 94.765 84.0336 94.765 82.236V69.9758C94.765 69.5652 94.6848 69.1725 94.5467 68.811C94.6894 68.2096 94.765 67.5869 94.765 66.9498V62.8288H94.7641V62.8287ZM44.0594 46.5293C46.1876 40.5249 47.8991 38.6919 51.3602 38.6919H77.1553C80.591 38.6919 82.5041 40.7363 84.4481 46.5034L88.3483 54.4073C87.0748 53.9357 85.6733 53.674 84.2009 53.674H43.7976C42.4718 53.674 41.2049 53.8872 40.036 54.273L44.0594 46.5293ZM47.4099 68.5157H40.2832C39 68.5157 37.9594 67.4741 37.9594 66.1911C37.9594 64.9077 39 63.8668 40.2832 63.8668H47.4099C48.6935 63.8668 49.7342 64.9077 49.7342 66.1911C49.7342 67.4741 48.6929 68.5157 47.4099 68.5157ZM72.5852 68.0502H56.0083C55.1955 68.0502 54.537 67.3912 54.537 66.5789C54.537 65.765 55.1955 65.1063 56.0083 65.1063H72.5852C73.399 65.1063 74.0574 65.765 74.0574 66.5789C74.0574 67.3912 73.399 68.0502 72.5852 68.0502ZM87.5357 68.5157H80.4093C79.125 68.5157 78.0849 67.4741 78.0849 66.1911C78.0849 64.9077 79.1259 63.8668 80.4093 63.8668H87.5357C88.8199 63.8668 89.8609 64.9077 89.8609 66.1911C89.8609 67.4741 88.8199 68.5157 87.5357 68.5157Z" fill="#186DB6"/>
<defs>
<filter id="filter0_d" x="0" y="0" width="128" height="128" filterUnits="userSpaceOnUse" color-interpolation-filters="sRGB">
<feFlood flood-opacity="0" result="BackgroundImageFix"/>
<feColorMatrix in="SourceAlpha" type="matrix" values="0 0 0 0 0 0 0 0 0 0 0 0 0 0 0 0 0 0 127 0"/>
<feOffset dy="4"/>
<feGaussianBlur stdDeviation="2"/>
<feColorMatrix type="matrix" values="0 0 0 0 0 0 0 0 0 0 0 0 0 0 0 0 0 0 0.25 0"/>
<feBlend mode="normal" in2="BackgroundImageFix" result="effect1_dropShadow"/>
<feBlend mode="normal" in="SourceGraphic" in2="effect1_dropShadow" result="shape"/>
</filter>
</defs>
</svg>
