<svg width="129" height="129" viewBox="0 0 129 129" fill="none" xmlns="http://www.w3.org/2000/svg">
<g filter="url(#filter0_d)">
<circle cx="64.0518" cy="60.9634" r="60" fill="white"/>
<circle cx="64.0518" cy="60.9634" r="59.5" stroke="#C7C7C7"/>
</g>
<path d="M93.4098 46.7077H92.1398V43.5339C92.1398 43.1814 91.8561 42.9014 91.5073 42.9014H86.3436V36.9489C86.3436 35.8964 85.4911 35.0439 84.4398 35.0439H43.6611C42.6086 35.0439 41.7561 35.8964 41.7561 36.9489V42.9002H36.5948C36.2448 42.9002 35.9611 43.1827 35.9611 43.5352V46.7089H34.6936C33.9923 46.7089 33.4248 47.2777 33.4248 47.9789V54.6439C33.4248 55.3452 33.9923 55.9139 34.6936 55.9139H35.9611V59.0877C35.9611 59.4389 36.2448 59.7214 36.5948 59.7214H41.7561V65.3014H41.7086C40.6561 65.3014 39.8048 66.1539 39.8048 67.2039V74.6089C39.8048 75.2389 40.1148 75.7927 40.5861 76.1402C40.1148 76.4864 39.8048 77.0439 39.8048 77.6739V80.6477C39.8048 81.7002 40.6573 82.5514 41.7086 82.5514H42.6636V85.6152C42.6636 86.3164 43.5248 86.8827 44.5898 86.8827H51.0123C52.0761 86.8827 52.9361 86.3164 52.9361 85.6152V82.5489H75.1586V85.6127C75.1586 86.3139 76.0198 86.8802 77.0898 86.8802H83.5111C84.5786 86.8802 85.4373 86.3139 85.4373 85.6127V82.5489H86.3923C87.4448 82.5489 88.2986 81.6939 88.2986 80.6452V77.6714C88.2986 77.0414 87.9861 76.4877 87.5148 76.1377C87.9861 75.7939 88.2986 75.2364 88.2986 74.6064V67.2014C88.2986 66.1489 87.4423 65.2977 86.3923 65.2977H86.3473V59.7202H91.5061C91.8573 59.7202 92.1423 59.4364 92.1423 59.0852V55.9114H93.4073C94.1123 55.9114 94.6786 55.3427 94.6786 54.6414V47.9764C94.6786 47.2764 94.1111 46.7077 93.4098 46.7077ZM41.7561 58.4527H37.2286V55.9127H38.4961C39.1986 55.9127 39.7661 55.3439 39.7661 54.6439V47.9777C39.7661 47.2764 39.1986 46.7089 38.4961 46.7089H37.2286V44.1702H41.7548L41.7561 58.4527ZM44.5586 80.9602C43.5936 80.9602 42.8123 80.1789 42.8123 79.2152C42.8123 78.2514 43.5961 77.4714 44.5586 77.4714C45.5211 77.4714 46.3036 78.2527 46.3036 79.2152C46.3036 80.1814 45.5223 80.9602 44.5586 80.9602ZM49.2123 80.9602C48.2473 80.9602 47.4673 80.1789 47.4673 79.2152C47.4673 78.2514 48.2498 77.4714 49.2123 77.4714C50.1773 77.4714 50.9573 78.2527 50.9573 79.2152C50.9573 80.1814 50.1773 80.9602 49.2123 80.9602ZM51.2486 73.7677H42.7848V68.5839H51.2486V73.7677ZM74.1011 76.3577H53.9986V74.0514H74.1011V76.3577ZM74.1011 72.7202H53.9986V69.8302H74.1011V72.7202ZM74.1011 68.4964H53.9986V65.6077H74.1011V68.4964ZM74.1011 64.2764H53.9986V61.3889H74.1011V64.2764ZM45.5648 52.3789V38.8539H82.5361V52.3789H45.5648ZM78.8911 80.9602C77.9223 80.9602 77.1461 80.1789 77.1461 79.2152C77.1461 78.2514 77.9273 77.4714 78.8911 77.4714C79.8548 77.4714 80.6348 78.2527 80.6348 79.2152C80.6348 80.1814 79.8561 80.9602 78.8911 80.9602ZM83.5423 80.9602C82.5786 80.9602 81.7998 80.1789 81.7998 79.2152C81.7998 78.2514 82.5811 77.4714 83.5423 77.4714C84.5111 77.4714 85.2898 78.2527 85.2898 79.2152C85.2898 80.1814 84.5061 80.9602 83.5423 80.9602ZM85.3148 73.7677H76.8511V68.5839H85.3148V73.7677ZM90.8711 46.7077H89.6011C88.8986 46.7077 88.3336 47.2764 88.3336 47.9777V54.6427C88.3336 55.3439 88.8973 55.9127 89.6011 55.9127H90.8711V58.4514H86.3411V44.1689H90.8711V46.7077Z" fill="#186DB6"/>
<defs>
<filter id="filter0_d" x="0.0517578" y="0.963379" width="128" height="128" filterUnits="userSpaceOnUse" color-interpolation-filters="sRGB">
<feFlood flood-opacity="0" result="BackgroundImageFix"/>
<feColorMatrix in="SourceAlpha" type="matrix" values="0 0 0 0 0 0 0 0 0 0 0 0 0 0 0 0 0 0 127 0"/>
<feOffset dy="4"/>
<feGaussianBlur stdDeviation="2"/>
<feColorMatrix type="matrix" values="0 0 0 0 0 0 0 0 0 0 0 0 0 0 0 0 0 0 0.25 0"/>
<feBlend mode="normal" in2="BackgroundImageFix" result="effect1_dropShadow"/>
<feBlend mode="normal" in="SourceGraphic" in2="effect1_dropShadow" result="shape"/>
</filter>
</defs>
</svg>
