<svg xmlns="http://www.w3.org/2000/svg" width="20.034" height="19.989" viewBox="0 0 20.034 19.989">
  <g id="call-answer_1_" data-name="call-answer (1)" transform="translate(0 -0.394)">
    <g id="Group_115" data-name="Group 115" transform="translate(0 0.394)">
      <g id="Group_114" data-name="Group 114" transform="translate(0 0)">
        <path id="Path_8" data-name="Path 8" d="M19.585,16.2,16.491,13.11a1.613,1.613,0,0,0-2.275.043l-1.559,1.558-.308-.171A15.512,15.512,0,0,1,8.6,11.828,15.6,15.6,0,0,1,5.884,8.072c-.058-.1-.113-.2-.168-.3L6.762,6.727l.514-.515a1.612,1.612,0,0,0,.041-2.275L4.224.843A1.612,1.612,0,0,0,1.949.885l-.872.877.024.024A5.042,5.042,0,0,0,.383,3.053a5.255,5.255,0,0,0-.32,1.286C-.346,7.726,1.2,10.821,5.4,15.022c5.806,5.806,10.485,5.367,10.687,5.346a5.228,5.228,0,0,0,1.289-.324,5.025,5.025,0,0,0,1.263-.715l.019.017.883-.865A1.615,1.615,0,0,0,19.585,16.2Z" transform="translate(0 -0.394)" fill="#cbcbcb"/>
      </g>
    </g>
  </g>
</svg>
