<svg id="car-wheel" xmlns="http://www.w3.org/2000/svg" width="27.059" height="27.059" viewBox="0 0 27.059 27.059">
  <path id="Path_29" data-name="Path 29" d="M13.529,0A13.529,13.529,0,1,0,27.059,13.529,13.545,13.545,0,0,0,13.529,0Zm0,23.138a9.609,9.609,0,1,1,9.609-9.609A9.609,9.609,0,0,1,13.529,23.138Z" fill="#cbcbcb"/>
  <path id="Path_30" data-name="Path 30" d="M56.943,48.578a8.365,8.365,0,1,0,8.365,8.365A8.375,8.375,0,0,0,56.943,48.578Zm7.294,7.832H60.178a3.26,3.26,0,0,0-.578-1.39l2.865-2.865A7.283,7.283,0,0,1,64.237,56.41Zm-6.769-6.761a7.282,7.282,0,0,1,4.255,1.764l-2.865,2.865a3.261,3.261,0,0,0-1.39-.578Zm-1.05,0V53.7a3.26,3.26,0,0,0-1.39.578l-2.865-2.865A7.282,7.282,0,0,1,56.418,49.649Zm-5,2.506,2.866,2.865a3.259,3.259,0,0,0-.578,1.39H49.649A7.284,7.284,0,0,1,51.42,52.154Zm-1.772,5.305h4.06a3.259,3.259,0,0,0,.578,1.39l-2.873,2.873A7.282,7.282,0,0,1,49.648,57.459Zm6.77,6.778a7.282,7.282,0,0,1-4.264-1.772l2.874-2.874a3.26,3.26,0,0,0,1.39.578Zm0-5.148V59.1a2.215,2.215,0,0,1-.633-.263l.005,0a2.228,2.228,0,0,1-.742-.742l0,0a2.214,2.214,0,0,1-.263-.633h.008a2.153,2.153,0,0,1,0-1.05H54.78a2.212,2.212,0,0,1,.263-.633l0,0a2.228,2.228,0,0,1,.742-.742l-.005,0a2.212,2.212,0,0,1,.633-.263v.008a2.15,2.15,0,0,1,1.05,0v-.008a2.212,2.212,0,0,1,.633.263l0,0a2.227,2.227,0,0,1,.742.742l0,0a2.212,2.212,0,0,1,.263.633H59.1a2.153,2.153,0,0,1,0,1.05h.008a2.209,2.209,0,0,1-.263.633l0,0a2.228,2.228,0,0,1-.742.742l0,0a2.212,2.212,0,0,1-.633.263V59.09a2.15,2.15,0,0,1-1.05,0Zm1.05,5.148V60.17a3.261,3.261,0,0,0,1.39-.578l2.874,2.874A7.282,7.282,0,0,1,57.468,64.238Zm5.006-2.515L59.6,58.85a3.261,3.261,0,0,0,.578-1.39h4.06A7.282,7.282,0,0,1,62.474,61.723Z" transform="translate(-43.414 -43.414)" fill="#cbcbcb"/>
</svg>
