<svg xmlns="http://www.w3.org/2000/svg" width="20.841" height="22.736" viewBox="0 0 20.841 22.736">
  <g id="gas-station" transform="translate(-16)">
    <g id="Group_118" data-name="Group 118" transform="translate(16)">
      <path id="Path_27" data-name="Path 27" d="M35.919,5.343l.019-.019L31.233.632,29.894,1.97l2.665,2.665a3.153,3.153,0,0,0,1.124,6.1,3.12,3.12,0,0,0,1.263-.265v9.107a1.263,1.263,0,1,1-2.526,0V13.894a2.525,2.525,0,0,0-2.526-2.526H28.631V2.526A2.526,2.526,0,0,0,26.1,0H18.526A2.525,2.525,0,0,0,16,2.526V22.736H28.631V13.262h1.895v6.315a3.158,3.158,0,1,0,6.315,0v-12A3.171,3.171,0,0,0,35.919,5.343ZM26.1,8.842H18.526V2.526H26.1Zm7.578,0a1.263,1.263,0,1,1,1.263-1.263A1.267,1.267,0,0,1,33.683,8.842Z" transform="translate(-16 0)" fill="#cbcbcb"/>
    </g>
  </g>
</svg>
