<svg xmlns="http://www.w3.org/2000/svg" width="23.945" height="24.902" viewBox="0 0 23.945 24.902">
  <g id="percentage-discount" transform="translate(-6.161)">
    <g id="Layer_5_90_" transform="translate(6.161)">
      <g id="Group_119" data-name="Group 119" transform="translate(0)">
        <path id="Path_31" data-name="Path 31" d="M16.495,9.669a5.771,5.771,0,0,0,1.49-3.936A5.641,5.641,0,0,0,12.06,0,5.8,5.8,0,0,0,7.643,1.8,5.786,5.786,0,0,0,6.161,5.733a5.628,5.628,0,0,0,5.9,5.733A5.84,5.84,0,0,0,16.495,9.669Zm-4.435-7a2.956,2.956,0,0,1,3.1,3.069,3.116,3.116,0,0,1-.762,2.1,2.991,2.991,0,0,1-2.305.935A2.992,2.992,0,0,1,8.914,5.7,2.926,2.926,0,0,1,12.06,2.666Z" transform="translate(-6.161)" fill="#cbcbcb"/>
        <path id="Path_32" data-name="Path 32" d="M42.452,27.937a1.692,1.692,0,0,0-1.07.488l-17.5,19.456a.368.368,0,0,0,.284.63h2.29a1.642,1.642,0,0,0,1.069-.477L44.917,28.582c.235-.263.22-.69-.363-.69Z" transform="translate(-22.406 -25.726)" fill="#cbcbcb"/>
        <path id="Path_33" data-name="Path 33" d="M170.925,175.822a5.5,5.5,0,0,0-5.787,5.624,5.521,5.521,0,0,0,5.787,5.624,5.729,5.729,0,0,0,4.351-1.763,5.661,5.661,0,0,0,1.461-3.861A5.534,5.534,0,0,0,170.925,175.822Zm.034,8.667a2.958,2.958,0,0,1-3.095-3.079,3.137,3.137,0,0,1,.762-2.1,3.151,3.151,0,0,1,5.393,2.142,3.139,3.139,0,0,1-.761,2.1A2.977,2.977,0,0,1,170.959,184.489Z" transform="translate(-152.791 -162.167)" fill="#cbcbcb"/>
      </g>
    </g>
  </g>
</svg>
