<svg xmlns="http://www.w3.org/2000/svg" width="29.373" height="19.314" viewBox="0 0 29.373 19.314">
  <g id="speedometer" transform="translate(0 -162.661)">
    <g id="Group_117" data-name="Group 117" transform="translate(0 162.661)">
      <path id="Path_19" data-name="Path 19" d="M754.107,584.291q0-.1-.007-.192t-.007-.194l0-.049v-.1l-.006-.081-.025-.324-.006-.082-.01-.106-.02-.211-.021-.21-.011-.1-.013-.1c-.035-.255-.067-.505-.112-.746-.021-.12-.041-.239-.063-.354l-.07-.337c-.043-.219-.1-.424-.144-.614l-.034-.139-.037-.132-.069-.243c-.022-.076-.041-.147-.062-.213l-.057-.179-.064-.2a.152.152,0,0,0-.187-.1l-4.966,1.415a.152.152,0,0,0-.108.174l.018.1.023.123c.008.045.014.094.023.146l.025.167c0,.029.01.059.014.09l.011.095c.014.129.034.268.044.417l.019.228c0,.078.007.158.011.238.011.161.009.329.012.5v.063l0,.056,0,.112q0,.056,0,.112v.056l0,.08q-.007.163-.014.324l0,.081v.013c0,.012,0-.1,0-.049v0l0,.016,0,.032-.012.127-.011.126-.015.124c-.01.082-.017.163-.03.242l-.034.233-.039.222c-.011.072-.026.141-.04.209s-.025.132-.04.194l-.041.177-.019.081-.018.066-.01.038h6.074a.152.152,0,0,0,.152-.145h0q.008-.17.016-.348c0-.119,0-.24.007-.363s0-.248,0-.375Q754.108,584.387,754.107,584.291Z" transform="translate(-724.738 -566.4)" fill="#cbcbcb"/>
      <path id="Path_20" data-name="Path 20" d="M658.512,337.542a.152.152,0,0,0,.081-.207l-.058-.123-.069-.145-.1-.214-.12-.242c-.021-.044-.043-.081-.065-.122l-.068-.125c-.046-.085-.094-.174-.144-.264l-.162-.278-.085-.145-.091-.146-.189-.3c-.135-.2-.27-.408-.421-.611l-.111-.154-.056-.077-.058-.076-.234-.3c-.08-.1-.162-.2-.243-.3-.041-.049-.08-.1-.122-.146l-.125-.142-.124-.141c-.041-.047-.082-.093-.125-.138l-.249-.265c-.082-.087-.167-.169-.248-.25s-.16-.161-.241-.235l-.233-.218c-.075-.07-.151-.134-.222-.2l-.206-.18-.19-.157-.167-.137c-.052-.042-.1-.079-.145-.113l-.16-.123a.152.152,0,0,0-.21.024l-2.665,3.226a.152.152,0,0,0,.01.205l.077.076c.028.028.06.057.092.092l.105.111.12.126.128.144c.044.051.092.1.138.157l.143.172c.05.058.1.121.147.185s.1.127.151.2l.15.206c.026.034.05.07.074.106l.074.108.074.109c.025.036.047.074.072.112.047.075.1.149.142.225l.135.229.034.057.031.058.063.115c.086.151.159.307.236.453l.1.221.05.107.045.106.087.2.075.192.035.09c.011.029.024.06.032.083l.049.142.044.124.049.145.043.129a.152.152,0,0,0,.2.093Z" transform="translate(-630.722 -326.026)" fill="#cbcbcb"/>
      <path id="Path_21" data-name="Path 21" d="M452.04,238.361l.134.018.156.027.178.031c.054.009.111.022.169.034l1.682-3.441-.247-.039c-.056-.008-.11-.018-.165-.025l-.161-.02-.309-.037-.289-.025c-.093-.007-.181-.016-.266-.021l-.24-.012-.211-.01-.179,0-.192,0a.152.152,0,0,0-.154.145l-.153,3.2a.152.152,0,0,0,.131.158Z" transform="translate(-437.823 -232.607)" fill="#cbcbcb"/>
      <path id="Path_22" data-name="Path 22" d="M596.232,270.413l.128.093.113.081.06.044.06.045.109.082a.152.152,0,0,0,.218-.039l2.2-3.345a.152.152,0,0,0-.051-.216l-.118-.068-.065-.037-.078-.044-.2-.111-.23-.125-.243-.122c-.085-.042-.172-.088-.265-.13l-.287-.131c-.1-.046-.2-.088-.306-.132s-.211-.09-.321-.132l-.085-.032-.947,4.112c.052.033.1.068.15.1Z" transform="translate(-577.494 -262.896)" fill="#cbcbcb"/>
      <path id="Path_23" data-name="Path 23" d="M190.058,241.215c.042-.006.084-.013.126-.017l.123-.013.236-.024.221-.015.1-.007c.034,0,.067-.005.1-.005l.169,0,.148,0h.292a.152.152,0,0,0,.151-.162l-.2-3.017a.152.152,0,0,0-.171-.141l-.135.017-.157.02-.219.032-.248.038c-.045.006-.086.015-.129.023l-.132.025-.281.054-.3.068-.155.036c-.052.012-.1.027-.158.041l-.325.087-.333.1c-.056.017-.113.034-.169.052l-.169.058-.17.058c-.057.019-.114.039-.17.061l-.339.129c-.113.044-.223.093-.334.139l-.166.071-.162.075-.161.074c-.053.025-.106.049-.158.076l-.307.155c-.1.05-.2.106-.292.158s-.188.1-.276.156l-.258.153c-.084.049-.161.1-.237.149l-.216.139-.191.131-.168.115c-.052.036-.1.071-.14.1l-.145.107a.152.152,0,0,0-.035.208l1.253,1.842a.152.152,0,0,0,.2.047l.112-.063c.037-.021.078-.045.123-.069l.148-.077.167-.088.189-.091c.066-.031.133-.066.205-.1l.222-.1c.076-.035.156-.065.237-.1s.163-.067.248-.1l.259-.093c.043-.016.088-.03.133-.045l.135-.043.135-.044.138-.039c.092-.025.184-.054.276-.077l.278-.069c.046-.012.092-.022.139-.031l.138-.029.137-.029.137-.024.267-.046Z" transform="translate(-178.79 -235.478)" fill="#cbcbcb"/>
      <path id="Path_24" data-name="Path 24" d="M25.373,360.26l-.1.14-.1.141c-.033.047-.064.1-.1.144-.064.1-.129.193-.191.291l-.182.3-.045.074-.043.075-.085.149c-.116.2-.216.4-.318.588l-.14.287-.067.139-.062.137-.118.263-.1.249c-.032.08-.065.156-.093.229l-.078.209-.068.183-.054.157-.054.16a.152.152,0,0,0,.09.191l1.166.447a.152.152,0,0,0,.192-.076l.061-.127.064-.133.08-.155.091-.176c.032-.062.069-.125.106-.192l.117-.207.131-.218.068-.113.074-.114.152-.235c.11-.155.217-.319.338-.476l.089-.12.045-.06.047-.059.187-.236c.064-.078.13-.154.194-.23.033-.038.064-.077.1-.114l.1-.11.1-.109c.032-.036.065-.072.1-.106l.2-.205c.065-.067.133-.13.2-.193s.127-.124.191-.181l.184-.168c.059-.054.12-.1.176-.152l.162-.138.144-.114.126-.1c.018-.015.042-.032.062-.048l.06-.045.109-.082a.152.152,0,0,0,.024-.221l-1.328-1.555a.152.152,0,0,0-.222-.011l-.1.095-.054.052c-.019.019-.037.036-.061.06l-.147.149-.167.169-.172.186c-.059.065-.123.131-.185.2l-.192.222c-.067.075-.131.156-.2.239s-.135.165-.2.252l-.2.266C25.439,360.167,25.406,360.213,25.373,360.26Z" transform="translate(-22.647 -352.142)" fill="#cbcbcb"/>
      <path id="Path_25" data-name="Path 25" d="M.314,597.75l-.027.133-.031.154c-.011.057-.022.125-.034.194l-.038.222c-.006.039-.014.079-.02.12l-.017.124c-.022.169-.05.35-.067.544l-.029.3c-.008.1-.014.206-.021.311-.017.211-.02.429-.027.65l0,.083v.251q0,.084,0,.168v.084l0,.084.014.335,0,.083v.047l0,.04.012.16.012.159.016.164.016.162.008.08.01.078.039.305.045.291c.014.095.031.186.047.274l0,.021a.152.152,0,0,0,.15.125H.8a.152.152,0,0,0,.152-.161q0-.035,0-.071c-.005-.085-.011-.173-.013-.264l-.009-.279q0-.142,0-.291v-.074l0-.074,0-.149,0-.15.007-.159.007-.16,0-.04V601.6c0-.006,0,.006,0,0v-.015l.006-.078.025-.313.006-.078.009-.078.018-.155.018-.155.009-.077.011-.076c.031-.2.058-.4.1-.594.018-.1.035-.19.053-.282l.06-.268c.036-.174.083-.337.121-.487l.029-.11c.01-.035.02-.069.03-.1l.056-.187c.018-.059.033-.112.05-.166l.05-.149.043-.129a.152.152,0,0,0-.105-.2L.5,597.633A.152.152,0,0,0,.314,597.75Z" transform="translate(0 -584.179)" fill="#cbcbcb"/>
      <path id="Path_26" data-name="Path 26" d="M345.624,181.571a2.37,2.37,0,0,0,3.172-1.089,2.492,2.492,0,0,0,.18-.509l2.4-10.411.913-3.965.566-2.456a.389.389,0,0,0-.39-.481.373.373,0,0,0-.343.221l-1.152,2.355-1.7,3.475-4.736,9.687A2.371,2.371,0,0,0,345.624,181.571Zm1.128-3.353a1.162,1.162,0,1,1-1.162,1.162A1.162,1.162,0,0,1,346.751,178.219Z" transform="translate(-333.648 -162.661)" fill="#cbcbcb"/>
    </g>
  </g>
</svg>
