<svg xmlns="http://www.w3.org/2000/svg" width="20.423" height="16.922" viewBox="0 0 20.423 16.922">
  <g id="light_checked" transform="translate(0 -38.37)">
    <path id="Path_1" data-name="Path 1" d="M20.423,47.77a2.677,2.677,0,0,0-.254-1.136c-.017-.089-.036-.178-.06-.269l-1.774-4.4-.012-.04c-.621-1.848-1.5-3.559-3.743-3.559H6.016c-2.295,0-3.106,1.753-3.74,3.548L.421,46.326A2.713,2.713,0,0,0,0,47.77v1.368a2.66,2.66,0,0,0,.073.618A1.075,1.075,0,0,0,0,50.143v4.069a1.08,1.08,0,0,0,1.08,1.08H3.322a1.08,1.08,0,0,0,1.08-1.08V52.177H16.149v2.035a1.081,1.081,0,0,0,1.081,1.08h2.114a1.08,1.08,0,0,0,1.081-1.08V50.142a1.082,1.082,0,0,0-.072-.387,2.672,2.672,0,0,0,.072-.618V47.77h0ZM3.593,42.36c.706-1.993,1.274-2.6,2.423-2.6h8.562c1.14,0,1.775.679,2.421,2.593l1.295,2.623a3.962,3.962,0,0,0-1.377-.243H3.506a3.98,3.98,0,0,0-1.249.2Zm1.112,7.3H2.34a.772.772,0,0,1,0-1.543H4.705a.772.772,0,0,1,0,1.543Zm8.356-.155h-5.5a.489.489,0,0,1,0-.977h5.5a.489.489,0,1,1,0,.977Zm4.962.155H15.658a.772.772,0,0,1,0-1.543h2.365a.772.772,0,1,1,0,1.543Z" transform="translate(0)" fill="#fff"/>
  </g>
</svg>
