<svg xmlns="http://www.w3.org/2000/svg" width="25.224" height="21.347" viewBox="0 0 25.224 21.347">
  <g id="delivery-truck-front" transform="translate(0 -3.765)">
    <path id="Path_3" data-name="Path 3" d="M24.7,8.568h-.523V7.261a.26.26,0,0,0-.26-.26H21.791V4.549a.784.784,0,0,0-.784-.784H4.215a.784.784,0,0,0-.784.784V7H1.305a.261.261,0,0,0-.261.261V8.569H.522A.523.523,0,0,0,0,9.091v2.745a.523.523,0,0,0,.522.523h.522v1.307a.261.261,0,0,0,.261.261H3.431v2.3h-.02a.784.784,0,0,0-.784.783v3.049a.782.782,0,0,0,.322.631.783.783,0,0,0-.322.632v1.225a.784.784,0,0,0,.784.784H3.8V24.59c0,.289.355.522.793.522H7.242c.438,0,.792-.233.792-.522V23.327h9.151v1.262c0,.289.355.522.8.522h2.644c.44,0,.793-.233.793-.522V23.327h.393a.785.785,0,0,0,.785-.784V21.319a.786.786,0,0,0-.323-.632.781.781,0,0,0,.323-.631V17.007a.785.785,0,0,0-.785-.784h-.019v-2.3h2.124a.262.262,0,0,0,.262-.261V12.358H24.7a.523.523,0,0,0,.523-.523V9.09A.523.523,0,0,0,24.7,8.568ZM3.431,13.4H1.566V12.359h.522a.523.523,0,0,0,.523-.522V9.091a.522.522,0,0,0-.523-.522H1.566V7.523H3.43V13.4Zm1.154,9.268a.718.718,0,1,1,.719-.719A.719.719,0,0,1,4.585,22.673Zm1.916,0a.718.718,0,1,1,.719-.719A.718.718,0,0,1,6.5,22.673Zm.839-2.962H3.854V17.576H7.34Zm9.41,1.067H8.472v-.95H16.75v.95Zm0-1.5H8.472V18.09H16.75v1.19Zm0-1.739H8.472v-1.19H16.75v1.19ZM5,10.9V5.334H20.223V10.9ZM18.722,22.673a.718.718,0,1,1,.718-.719A.717.717,0,0,1,18.722,22.673Zm1.915,0a.718.718,0,1,1,.72-.719A.718.718,0,0,1,20.638,22.673Zm.73-2.962H17.882V17.576h3.485ZM23.656,8.568h-.523a.522.522,0,0,0-.522.523v2.745a.522.522,0,0,0,.522.523h.523V13.4H21.79V7.523h1.865Z" transform="translate(0 0)" fill="#004781"/>
  </g>
</svg>
