<svg xmlns="http://www.w3.org/2000/svg" width="20.375" height="22.262" viewBox="0 0 20.375 22.262">
  <g id="Group_47" data-name="Group 47" transform="translate(-1.926 0)">
    <path id="Path_2" data-name="Path 2" d="M21.268,5.443a8.255,8.255,0,0,0-.929-3.7C18.45-.5,5.219-.661,3.717,1.739a10.655,10.655,0,0,0-.8,3.707,1.121,1.121,0,0,0-.993,1.111V8.734a1.122,1.122,0,0,0,.735,1.051c-.1,3.429-.019,7.006.133,8.785,0,1.373.923,1.146.923,1.146h.865V21.2a1.235,1.235,0,0,0,1.353,1.064A1.235,1.235,0,0,0,7.288,21.2V19.715H17.348V21.2A1.234,1.234,0,0,0,18.7,22.262,1.235,1.235,0,0,0,20.054,21.2V19.715h.284s1.086.149,1.155-.5c0-1.774.112-5.706.02-9.417A1.117,1.117,0,0,0,22.3,8.734V6.557A1.119,1.119,0,0,0,21.268,5.443ZM6.948,2.058H17.107V3.595H6.948Zm.145,15.907A1.444,1.444,0,1,1,8.537,16.52,1.444,1.444,0,0,1,7.093,17.965Zm9.96,0A1.444,1.444,0,1,1,18.5,16.52,1.445,1.445,0,0,1,17.053,17.965Zm1.836-6.32H5.167v-7.2H18.889Z" transform="translate(0 0)" fill="#004781"/>
  </g>
</svg>
