<svg xmlns="http://www.w3.org/2000/svg" width="23.666" height="22.568" viewBox="0 0 23.666 22.568">
  <g id="star" transform="translate(0 -0.452)">
    <path id="Path_28" data-name="Path 28" d="M12.392.824,15.4,7.949l7.707.662a.608.608,0,0,1,.346,1.064L17.61,14.739l1.752,7.534a.607.607,0,0,1-.905.657l-6.623-3.994L5.21,22.931a.607.607,0,0,1-.905-.657l1.752-7.534L.21,9.674A.607.607,0,0,1,.556,8.609l7.707-.662L11.273.824a.607.607,0,0,1,1.119,0Z" transform="translate(0)" fill="#cbcbcb"/>
  </g>
</svg>
