<svg xmlns="http://www.w3.org/2000/svg" width="11.627" height="11" viewBox="0 0 11.627 11">
  <g id="arrows" transform="translate(-402 -455)">
    <path id="Vector-1" d="M6.627,5.5a.343.343,0,0,0-.114-.254L1.207.11a.366.366,0,0,0-.524,0L.114.661a.339.339,0,0,0,0,.507L4.589,5.5.114,9.832a.339.339,0,0,0,0,.507l.569.551a.366.366,0,0,0,.524,0L6.513,5.754A.342.342,0,0,0,6.627,5.5Z" transform="translate(402 455)" fill="gray"/>
    <path id="Vector" d="M6.886,5.246,1.58.11a.366.366,0,0,0-.524,0L.487.661a.339.339,0,0,0,0,.507L4.962,5.5.487,9.832a.339.339,0,0,0,0,.507l.569.551a.366.366,0,0,0,.523,0L6.886,5.754a.34.34,0,0,0,0-.507Z" transform="translate(406.627 455)" fill="gray"/>
  </g>
</svg>
