<svg width="11" height="11" viewBox="0 0 11 11" fill="none" xmlns="http://www.w3.org/2000/svg">
<path d="M10.8863 5.24644L5.57961 0.110295C5.50387 0.0368679 5.41652 0 5.31781 0C5.21921 0 5.13199 0.0368679 5.05609 0.110295L4.48665 0.661384C4.41075 0.734849 4.37286 0.81924 4.37286 0.914904C4.37286 1.01057 4.41075 1.09496 4.48665 1.16842L8.96198 5.50008L4.48669 9.83185C4.41079 9.90531 4.3729 9.98986 4.3729 10.0853C4.3729 10.1809 4.41079 10.2654 4.48669 10.3389L5.05613 10.8898C5.13199 10.9634 5.21921 11 5.31785 11C5.41668 11 5.50391 10.9633 5.57961 10.8898L10.8863 5.75364C10.9622 5.68021 11 5.59562 11 5.50012C11 5.40461 10.9622 5.32006 10.8863 5.24644Z" fill="#808080"/>
<path d="M6.6273 5.50012C6.6273 5.40461 6.58953 5.32002 6.51335 5.24644L1.20703 0.110295C1.13117 0.0368679 1.04382 0 0.945144 0C0.84647 0 0.759083 0.0368679 0.683222 0.110295L0.11391 0.661422C0.0378903 0.734888 0 0.819279 0 0.914942C0 1.01061 0.0378903 1.095 0.11391 1.16846L4.58912 5.50012L0.11391 9.83185C0.0378903 9.90531 0 9.98986 0 10.0853C0 10.1809 0.0378903 10.2654 0.11391 10.3389L0.683183 10.8898C0.759083 10.9634 0.84643 11 0.945104 11C1.04378 11 1.13113 10.9633 1.20703 10.8898L6.51335 5.75364C6.58953 5.68021 6.6273 5.59562 6.6273 5.50012Z" fill="#808080"/>
</svg>
