<svg width="32" height="25" viewBox="0 0 32 25" fill="none" xmlns="http://www.w3.org/2000/svg">
<path d="M31.357 2.9786H26.5796V1.46382C26.5796 1.18883 26.3565 0.96582 26.0813 0.96582H22.6645C22.3893 0.96582 22.1662 1.18876 22.1662 1.46382V2.9786H10.4251V1.46382C10.4251 1.18883 10.202 0.96582 9.9268 0.96582H6.51002C6.23485 0.96582 6.01171 1.18876 6.01171 1.46382V2.9786H1.23439C0.959226 2.9786 0.736084 3.20153 0.736084 3.4766V6.65542C0.736084 6.93042 0.959156 7.15342 1.23439 7.15342H2.85223H29.7392H31.3571C31.6321 7.15342 31.8554 6.93049 31.8554 6.65542V3.4766C31.8553 3.2016 31.6321 2.9786 31.357 2.9786Z" fill="#1884E4"/>
<path d="M2.85229 24.1348C2.85229 24.4916 3.14161 24.7809 3.49857 24.7809H29.093C29.45 24.7809 29.7393 24.4917 29.7393 24.1348V8.85059H2.85229V24.1348ZM13.2365 17.5346L14.7508 12.6981C14.7768 12.615 14.8538 12.5584 14.9409 12.5584H17.3023C17.3661 12.5584 17.4258 12.5889 17.4635 12.6404C17.501 12.6919 17.5115 12.7583 17.4918 12.8189L16.5699 15.665H19.1651C19.2381 15.665 19.3051 15.7048 19.3401 15.7688C19.375 15.8328 19.3721 15.9106 19.3326 15.9719L15.8656 21.3484C15.8281 21.4066 15.7643 21.4397 15.6981 21.4397C15.6742 21.4397 15.6501 21.4353 15.6267 21.4264C15.5386 21.3926 15.4864 21.3015 15.5016 21.2084L16.0614 17.7932H13.4267C13.3633 17.7932 13.3037 17.763 13.2662 17.712C13.2285 17.6609 13.2175 17.595 13.2365 17.5346Z" fill="#1884E4"/>
</svg>
