<svg width="41" height="50" viewBox="0 0 41 50" fill="none" xmlns="http://www.w3.org/2000/svg">
<path d="M38.7491 25.4322C39.7081 25.4322 40.4831 24.6532 40.4831 23.6942V22.4342C40.4831 21.4732 39.7081 20.6962 38.7491 20.6962H30.0971V2.83918C30.0971 1.87918 29.3201 1.10218 28.3611 1.10218H12.6421C11.6821 1.10218 10.9051 1.87918 10.9051 2.83918V20.6972H7.95105V2.59518C7.95105 1.63618 7.17405 0.857178 6.21405 0.857178H1.96505V4.33318H4.47505V20.6952H2.25505C1.29605 20.6952 0.517052 21.4712 0.517052 22.4322V23.6932C0.517052 24.6522 1.29405 25.4302 2.25505 25.4302H10.9051V35.7072H8.88005V27.9852C8.88005 27.0232 8.10305 26.2462 7.14305 26.2462H2.25405C1.29505 26.2462 0.516052 27.0232 0.516052 27.9852V48.1212C0.516052 49.0822 1.29305 49.8562 2.25405 49.8562H7.14205C8.10205 49.8562 8.87905 49.0822 8.87905 48.1212V40.3952H32.1221V48.1212C32.1221 49.0822 32.8991 49.8562 33.8581 49.8562H38.7491C39.7081 49.8562 40.4831 49.0822 40.4831 48.1212V27.9882C40.4831 27.0252 39.7081 26.2482 38.7491 26.2482H33.8581C32.8991 26.2482 32.1221 27.0252 32.1221 27.9882V35.7092H30.0971V25.4322H38.7491ZM14.3811 28.2032C14.7141 28.0412 15.0831 27.9382 15.4811 27.9382C16.8681 27.9382 17.9911 29.0612 17.9911 30.4512C17.9911 31.8382 16.8681 32.9612 15.4811 32.9612C15.0841 32.9612 14.7141 32.8602 14.3811 32.6972C13.5491 32.2892 12.9701 31.4382 12.9701 30.4512C12.9701 29.4612 13.5491 28.6112 14.3811 28.2032ZM26.6201 32.6972C26.2881 32.8602 25.9171 32.9612 25.5171 32.9612C24.1331 32.9612 23.0081 31.8382 23.0081 30.4512C23.0081 29.0632 24.1331 27.9402 25.5171 27.9402C25.9141 27.9402 26.2881 28.0412 26.6201 28.2052C27.4541 28.6142 28.0281 29.4632 28.0281 30.4512C28.0281 31.4402 27.4501 32.2872 26.6201 32.6972ZM14.3811 4.57618H26.6201V19.3972H14.3811V4.57618Z" fill="#1884E4"/>
</svg>
