<svg width="50" height="42" viewBox="0 0 50 42" fill="none" xmlns="http://www.w3.org/2000/svg">
<path d="M49.2238 23.2267C49.2238 22.2585 49.0052 21.3337 48.6104 20.4877C48.5697 20.2726 48.5232 20.0578 48.4651 19.84L44.1892 9.24338L44.1603 9.14804C42.6643 4.69354 40.5356 0.570801 35.138 0.570801H14.5006C8.96991 0.570801 7.01554 4.7957 5.48672 9.1233L1.01419 19.7457C0.367607 20.7817 0 21.9668 0 23.2267V26.5241C0 27.0339 0.0602598 27.5326 0.174841 28.0129C0.0634487 28.3031 0 28.6158 0 28.9455V38.7525C0 40.1906 1.16583 41.3567 2.60393 41.3567H8.00752C9.44485 41.3567 10.6107 40.1906 10.6107 38.7525V33.8483H38.9218V38.7525C38.9218 40.1906 40.0878 41.3567 41.526 41.3567H46.6202C48.0589 41.3567 49.2245 40.1906 49.2245 38.7525V28.9444C49.2245 28.6159 49.1604 28.3018 49.0498 28.0126C49.164 27.5315 49.2245 27.0333 49.2245 26.5236V23.2268H49.2238V23.2267ZM8.66004 10.1872C10.3626 5.38367 11.7317 3.91731 14.5006 3.91731H35.1367C37.8853 3.91731 39.4157 5.55279 40.971 10.1665L44.0912 16.4896C43.0724 16.1123 41.9512 15.903 40.7732 15.903H8.45056C7.38996 15.903 6.37643 16.0735 5.44131 16.3822L8.66004 10.1872ZM11.3404 27.7764H5.63902C4.61251 27.7764 3.77998 26.9431 3.77998 25.9167C3.77998 24.8899 4.61251 24.0572 5.63902 24.0572H11.3404C12.3673 24.0572 13.1999 24.8899 13.1999 25.9167C13.1999 26.9431 12.3668 27.7764 11.3404 27.7764ZM31.4807 27.4039H18.2191C17.5689 27.4039 17.0421 26.8767 17.0421 26.2269C17.0421 25.5758 17.5689 25.0488 18.2191 25.0488H31.4807C32.1317 25.0488 32.6584 25.5758 32.6584 26.2269C32.6584 26.8767 32.1317 27.4039 31.4807 27.4039ZM43.4411 27.7764H37.7399C36.7125 27.7764 35.8804 26.9431 35.8804 25.9167C35.8804 24.8899 36.7132 24.0572 37.7399 24.0572H43.4411C44.4684 24.0572 45.3012 24.8899 45.3012 25.9167C45.3012 26.9431 44.4684 27.7764 43.4411 27.7764Z" fill="#1884E4"/>
</svg>
