<svg width="41" height="47" viewBox="0 0 41 47" fill="none" xmlns="http://www.w3.org/2000/svg">
<path d="M30.4709 0H1.35896C0.608451 0 -5.25314e-08 0.608451 -5.25314e-08 1.35896V36.2934C-5.25314e-08 37.0439 0.608451 37.6523 1.35896 37.6523H30.4709C31.2215 37.6523 31.8299 37.0439 31.8299 36.2934V1.35896C31.8299 0.608451 31.2215 0 30.4709 0Z" fill="#79849F"/>
<path d="M39.2045 8.73352H34.5478V36.2932C34.5478 38.5413 32.719 40.3701 30.4709 40.3701H8.73358V45.0268C8.73358 45.7773 9.34203 46.3858 10.0925 46.3858H39.2045C39.955 46.3858 40.5635 45.7773 40.5635 45.0268V10.0925C40.5635 9.34197 39.955 8.73352 39.2045 8.73352Z" fill="#79849F"/>
</svg>
