<svg width="66" height="48" viewBox="0 0 66 48" fill="none" xmlns="http://www.w3.org/2000/svg">
<path d="M2.31582 31.6484V3.56781C2.31582 2.00743 3.58072 0.742432 5.14121 0.742432H33.2074C34.7678 0.742432 36.0327 2.00743 36.0327 3.56781V31.6485C36.0327 32.1687 35.6111 32.5903 35.0909 32.5903H3.25762C2.73738 32.5903 2.31582 32.1687 2.31582 31.6484ZM24.9801 41.2683C24.9801 44.5046 22.3564 47.1282 19.1202 47.1282C15.8839 47.1282 13.2602 44.5046 13.2602 41.2683C13.2602 38.0318 15.8839 35.4083 19.1202 35.4083C22.3564 35.4083 24.9801 38.0318 24.9801 41.2683ZM22.05 41.2683C22.05 39.6501 20.7382 38.3383 19.12 38.3383C17.5019 38.3383 16.19 39.6501 16.19 41.2683C16.19 42.8864 17.5019 44.1984 19.12 44.1984C20.7382 44.1984 22.05 42.8864 22.05 41.2683ZM14.073 35.4082H0.941794C0.421667 35.4082 0 35.8298 0 36.35V39.2073C0 39.7274 0.421667 40.1491 0.941794 40.1491H11.4671C11.7419 38.2635 12.6936 36.598 14.073 35.4082ZM55.6404 41.2683C55.6404 44.5046 53.0167 47.1282 49.7804 47.1282C46.544 47.1282 43.9204 44.5046 43.9204 41.2683C43.9204 38.0318 46.544 35.4083 49.7804 35.4083C53.0167 35.4082 55.6404 38.0318 55.6404 41.2683ZM52.7105 41.2683C52.7105 39.6501 51.3986 38.3383 49.7804 38.3383C48.1621 38.3383 46.8504 39.6501 46.8504 41.2683C46.8504 42.8864 48.1622 44.1984 49.7804 44.1984C51.3986 44.1984 52.7105 42.8864 52.7105 41.2683ZM66 36.35V39.2073C66 39.7274 65.5783 40.1491 65.0582 40.1491H57.4333C56.8879 36.4087 53.6689 33.5246 49.7806 33.5246C45.8916 33.5246 42.6725 36.4089 42.1271 40.1491H26.7732C26.4984 38.2636 25.5467 36.598 24.1673 35.4082H38.7255V8.46993C38.7255 7.42968 39.5688 6.58634 40.6091 6.58634H49.5002C52.0037 6.58634 54.3436 7.82988 55.7443 9.90468L61.4762 18.3942C62.3169 19.6395 62.7662 21.1076 62.7662 22.6102V35.4082H65.0582C65.5783 35.4082 66 35.8298 66 36.35ZM56.446 18.6116L51.8625 12.0986C51.6861 11.848 51.3988 11.6989 51.0923 11.6989H43.9428C43.4228 11.6989 43.001 12.1205 43.001 12.6407V19.1536C43.001 19.6739 43.4227 20.0954 43.9428 20.0954H55.676C56.4388 20.0954 56.8851 19.2356 56.446 18.6116Z" fill="#79849F"/>
</svg>
