<svg width="30" height="28" viewBox="0 0 30 28" fill="none" xmlns="http://www.w3.org/2000/svg">
<path d="M20.4394 7.10516V5.19237C20.4394 3.47806 21.8349 2.08332 23.5503 2.08332H26.7808C27.3312 2.08332 27.7771 1.63762 27.7771 1.08756C27.7771 0.537501 27.3312 0.0917969 26.7808 0.0917969H23.5503C20.7618 0.0917969 18.4899 2.33851 18.4486 5.11563L16.2317 2.90012C16.0449 2.71344 15.7915 2.60856 15.5272 2.60856H10.8992C5.30882 2.60842 0.760742 7.15375 0.760742 12.7407V23.6642C0.760742 25.6665 2.3908 27.2955 4.39442 27.2955H18.3542C20.3578 27.2955 21.9879 25.6665 21.9879 23.6642V9.06496C21.9879 8.80088 21.8829 8.54769 21.6961 8.36089L20.4394 7.10516ZM12.583 5.80536L3.98445 14.7299C3.79235 12.2045 4.47466 9.93141 5.93148 8.28109C7.36014 6.66291 9.43683 5.77163 11.7792 5.77163C12.0436 5.7715 12.3122 5.78279 12.583 5.80536Z" fill="#1884E4"/>
<path d="M29.4588 8.68886L27.3903 4.26514C27.2265 3.91477 26.8745 3.69092 26.4876 3.69092C26.1006 3.69092 25.7487 3.9149 25.5849 4.26514L23.5166 8.68872C23.0394 9.70932 23.1158 10.8859 23.721 11.8363C24.3263 12.7865 25.3605 13.3539 26.4876 13.3539C27.6147 13.3539 28.6491 12.7866 29.2542 11.8363C29.8593 10.8859 29.936 9.70932 29.4588 8.68886Z" fill="#1884E4"/>
</svg>
