<svg width="31" height="31" viewBox="0 0 31 31" fill="none" xmlns="http://www.w3.org/2000/svg">
<path d="M13.8584 12.0566L1.41186 24.4956C0.948896 24.9583 0.717285 25.5124 0.717285 26.1578C0.717285 26.8155 0.948832 27.3633 1.41186 27.8021L3.34913 29.7748C3.82451 30.2254 4.37889 30.4505 5.01233 30.4505C5.6582 30.4505 6.2065 30.2254 6.65736 29.7748L19.1219 17.3174C17.9282 16.8423 16.8714 16.1452 15.9511 15.2259C15.0313 14.3064 14.3338 13.25 13.8584 12.0566ZM7.00472 25.8108C6.77291 26.042 6.49879 26.1579 6.18211 26.1579C5.86529 26.1579 5.59117 26.042 5.35969 25.8108C5.12814 25.5794 5.01233 25.3055 5.01233 24.9889C5.01233 24.6726 5.12814 24.3983 5.35969 24.1665C5.59117 23.9356 5.8651 23.8197 6.18211 23.8197C6.49899 23.8197 6.77317 23.9356 7.00472 24.1665C7.23613 24.3982 7.35194 24.6725 7.35194 24.9889C7.35194 25.3055 7.23613 25.5794 7.00472 25.8108Z" fill="#1884E4"/>
<path d="M30.5541 8.91698C30.4505 8.79504 30.3073 8.73426 30.1248 8.73426C30.0152 8.73426 29.5858 8.95057 28.8362 9.38286C28.0869 9.81503 27.2612 10.3081 26.3597 10.8623C25.4578 11.4165 24.9765 11.7118 24.9157 11.7484L21.3881 9.79385V5.70223L26.7431 2.61505C26.938 2.48114 27.0355 2.31064 27.0355 2.10361C27.0355 1.89671 26.938 1.72627 26.7431 1.5923C26.2068 1.22686 25.5517 0.943695 24.7784 0.742805C24.0047 0.541915 23.2642 0.441406 22.5577 0.441406C20.3036 0.441406 18.3754 1.24228 16.7733 2.84351C15.1707 4.44462 14.3699 6.37182 14.3699 8.62453C14.3699 10.8773 15.1711 12.8045 16.7733 14.4057C18.3754 16.0068 20.3036 16.8077 22.5577 16.8077C24.2759 16.8077 25.8508 16.2988 27.2825 15.2823C28.7139 14.2655 29.7165 12.9412 30.2891 11.3095C30.5691 10.4937 30.7092 9.84817 30.7092 9.37339C30.7097 9.19118 30.6575 9.03892 30.5541 8.91698Z" fill="#1884E4"/>
</svg>
