<svg xmlns="http://www.w3.org/2000/svg" viewBox="0 0 250.21 34.67"><defs><style>.cls-1{fill:#005b9f;}.cls-1,.cls-2{fill-rule:evenodd;}.cls-2{fill:#52ae32;}</style></defs><title>resourse</title><g id="Слой_2" data-name="Слой 2"><path class="cls-1" d="M131.6,34.57c-3.28,0-6.53-.9-8.8-3.39s-3.09-6.32-3.09-9.74c0-3.62.84-7.41,3.27-10.2a11.72,11.72,0,0,1,9-3.72,20.83,20.83,0,0,1,6.94,1.15v6.72a13.64,13.64,0,0,0-6.61-1.92,5.45,5.45,0,0,0-3,.82c-2.16,1.42-2.58,4.41-2.58,6.78,0,2.18.31,4.84,2.07,6.36a5.42,5.42,0,0,0,3.6,1.14,14.74,14.74,0,0,0,6.54-2V33a18.69,18.69,0,0,1-7.27,1.6Zm-22-20.08a3.27,3.27,0,0,0-1.23-.66h0a6.54,6.54,0,0,0-2-.26h-1.48v7.1h1.63a5.12,5.12,0,0,0,1.78-.27h0a3.12,3.12,0,0,0,1.2-.73h0a3,3,0,0,0,.73-1.13,4.52,4.52,0,0,0,.26-1.6,4,4,0,0,0-.24-1.44,2.59,2.59,0,0,0-.68-1Zm-4.7,11.88v7.87H98.32V7.87h8.12a16.51,16.51,0,0,1,4.47.55,9.56,9.56,0,0,1,3.4,1.68,7.41,7.41,0,0,1,2.16,2.79,9,9,0,0,1,.72,3.71,10.51,10.51,0,0,1-.69,3.88,8.65,8.65,0,0,1-2.12,3.14,9.8,9.8,0,0,1-3.47,2,14.23,14.23,0,0,1-4.66.71Zm-29.4,7.57V28.11a14,14,0,0,0,3.23.48c1.23,0,2.45-1.28,3-2.56l.32-.83L73.32,7.87h7.15L85,17.71l3.76-9.84h7.06L87.61,27.62a14.12,14.12,0,0,1-3.44,5.46,6.57,6.57,0,0,1-4.36,1.59,13.53,13.53,0,0,1-4.36-.74Zm-12.08.63c-3.28,0-6.53-.9-8.8-3.39s-3.09-6.32-3.09-9.74c0-3.62.84-7.41,3.27-10.2a11.72,11.72,0,0,1,9-3.72,20.83,20.83,0,0,1,6.94,1.15v6.72A13.64,13.64,0,0,0,64,13.47a5.45,5.45,0,0,0-3,.82c-2.16,1.42-2.58,4.41-2.58,6.78,0,2.18.31,4.84,2.07,6.36a5.42,5.42,0,0,0,3.6,1.14,14.74,14.74,0,0,0,6.54-2V33a18.69,18.69,0,0,1-7.27,1.6ZM27.53,13.73H50l1.52-5.86H29l-1.52,5.86ZM24.87,24H47.33l1.52-5.86H26.39L24.87,24ZM22.21,34.24H44.67l1.52-5.86H23.73l-1.52,5.86Zm-15-16.11h3.21c3.79,0,6.75-1.48,6.75-5.84s-2.67-5.84-6.71-5.84H7.18V18.12Zm0,6.45v9.67H0V0H10.65c3.54,0,7.46.86,10.19,3S24.6,9,24.6,12.28s-.75,6.49-3.5,9-6.66,3.31-10.45,3.31Z"/><path class="cls-2" d="M242.94,34.57c-3.28,0-6.53-.9-8.8-3.39S231,24.86,231,21.44c0-3.62.84-7.41,3.27-10.2a11.72,11.72,0,0,1,9-3.72,20.83,20.83,0,0,1,6.94,1.15v6.72a13.64,13.64,0,0,0-6.61-1.92,5.45,5.45,0,0,0-3,.82c-2.16,1.42-2.58,4.41-2.58,6.78,0,2.18.31,4.84,2.07,6.36a5.42,5.42,0,0,0,3.6,1.14,14.74,14.74,0,0,0,6.54-2V33a18.69,18.69,0,0,1-7.27,1.6ZM221.09,23.7h-6.44V34.24h-6.5V7.87h6.5V18h6.44V7.87h6.49V34.24h-6.49V23.7Zm-27.35-7.21-2.07,7.36h4.09l-2-7.36ZM190,29.56l-1.32,4.68h-6.53L190,7.87h7.85l7.81,26.37h-7.08l-1.28-4.68Zm-18.8-3.19h1.59c2.83,0,6.19-.62,8-2.36s2.72-3.39,2.71-7.09c0-2.83-.57-5-2.89-6.82s-5.14-2.23-7.87-2.23h-8.12V34.24h6.52V26.37ZM176,14.49a3,3,0,0,1,.93,2.43,3.83,3.83,0,0,1-.93,2.83,4.59,4.59,0,0,1-3.07.91h-1.63v-7.1h1.59a4.63,4.63,0,0,1,3.11.93ZM155.09,34.24H148.2V6.45h-9.33V0h25.85V6.45h-9.34V34.24ZM24.87,24l9,4.39H46.19l-9-4.39Zm2.66-10.26,9,4.4H48.85l-9-4.4Z"/></g></svg>