<svg width="33" height="33" viewBox="0 0 33 33" fill="none" xmlns="http://www.w3.org/2000/svg">
<path d="M16.3191 0.888184C7.55969 0.888184 0.43335 8.0101 0.43335 16.7642C0.43335 25.5183 7.55969 32.6402 16.3191 32.6402C25.0784 32.6402 32.2047 25.5183 32.2047 16.7642C32.2047 8.0101 25.0782 0.888184 16.3191 0.888184ZM16.3191 28.04C10.0877 28.04 5.03629 22.9918 5.03629 16.7642C5.03629 10.5366 10.0877 5.48834 16.3191 5.48834C22.5502 5.48834 27.6018 10.5366 27.6018 16.7642C27.6018 22.9918 22.5501 28.04 16.3191 28.04Z" fill="#1884E4"/>
<path d="M16.319 6.94824C10.9029 6.94824 6.49683 11.3517 6.49683 16.7643C6.49683 22.1769 10.903 26.5804 16.319 26.5804C21.7349 26.5804 26.141 22.1769 26.141 16.7643C26.141 11.3517 21.7347 6.94824 16.319 6.94824ZM24.8831 16.1385H20.1174C20.0201 15.5366 19.7821 14.9814 19.439 14.5069L22.8035 11.1445C23.9845 12.5037 24.7449 14.2357 24.8831 16.1385ZM16.9352 8.20444C18.838 8.34004 20.5704 9.09713 21.9312 10.2741L18.5675 13.6359C18.0927 13.2931 17.5373 13.0555 16.9352 12.9582V8.20444ZM15.7026 8.20444V12.958C15.1004 13.0553 14.545 13.293 14.0702 13.6359L10.7063 10.2742C12.0671 9.09725 13.7998 8.34004 15.7026 8.20444ZM9.83395 11.1446L13.1985 14.507C12.8554 14.9814 12.6176 15.5366 12.5202 16.1383H7.75453C7.89271 14.2357 8.65313 12.5038 9.83395 11.1446ZM7.75316 17.3702H12.5204C12.6176 17.972 12.8555 18.5271 13.1987 19.0016L9.82483 22.3734C8.64502 21.0109 7.88685 19.2757 7.75316 17.3702ZM15.7026 25.3242C13.7947 25.1882 12.0582 24.4275 10.6956 23.2451L14.0702 19.8726C14.545 20.2156 15.1004 20.4532 15.7026 20.5505V25.3242ZM15.7026 19.2833V19.2923C15.4366 19.2277 15.1869 19.1226 14.9595 18.9837L14.9654 18.9778C14.6096 18.761 14.3108 18.4624 14.0939 18.1067L14.0881 18.1124C13.9491 17.8852 13.844 17.6358 13.7793 17.37H13.7882C13.7401 17.1722 13.7119 16.9666 13.7119 16.7541C13.7119 16.5415 13.7403 16.3359 13.7882 16.1382H13.7793C13.844 15.8725 13.949 15.6231 14.0881 15.3958L14.0939 15.4016C14.3108 15.0461 14.6098 14.7473 14.9654 14.5306L14.9595 14.5247C15.1869 14.3858 15.4366 14.2806 15.7026 14.2161V14.2251C15.9006 14.1771 16.1061 14.1487 16.319 14.1487C16.5318 14.1487 16.7374 14.1771 16.9353 14.2251V14.2161C17.2013 14.2807 17.4508 14.3856 17.6781 14.5246L17.6723 14.5305C18.0281 14.7472 18.327 15.0459 18.5439 15.4015L18.5497 15.3957C18.6888 15.623 18.7939 15.8725 18.8586 16.1383H18.8497C18.8978 16.3361 18.926 16.5416 18.926 16.7542C18.926 16.9668 18.8977 17.1724 18.8497 17.3701H18.8586C18.7939 17.6359 18.689 17.8854 18.5497 18.1127L18.5439 18.107C18.327 18.4625 18.028 18.7611 17.6723 18.9779L17.6781 18.9837C17.4508 19.1226 17.2013 19.2277 16.9353 19.2923V19.2833C16.7374 19.3313 16.5318 19.3597 16.319 19.3597C16.1061 19.3597 15.9006 19.3315 15.7026 19.2833ZM16.9352 25.3242V20.5505C17.5373 20.4532 18.0927 20.2156 18.5675 19.8727L21.9419 23.2451C20.5795 24.4275 18.843 25.1882 16.9352 25.3242ZM22.8128 22.3734L19.4391 19.0018C19.7823 18.5272 20.0201 17.9721 20.1175 17.3702H24.8846C24.7508 19.2757 23.9928 21.0109 22.8128 22.3734Z" fill="#1884E4"/>
</svg>
