<svg id="tools-and-utensils" xmlns="http://www.w3.org/2000/svg" width="23.709" height="23.717" viewBox="0 0 23.709 23.717">
  <path id="Path_14" data-name="Path 14" d="M10.942,13.856l1.473,1.473a2.06,2.06,0,0,0,.582.4l2.766-2.766a2.058,2.058,0,0,0-.4-.582l-1.473-1.473-.982.982L5.327,4.345,6.4,3.274,1.814,0,0,1.814,3.274,6.4,4.345,5.327l7.579,7.546Zm0,0" fill="#cbcbcb"/>
  <path id="Path_15" data-name="Path 15" d="M9.439,262.04l1.5-1.4-1.965-1.965.982-.982-.982-.982-2.484,2.387a4.862,4.862,0,1,0,2.947,2.947Zm-6.053,3.106a2.084,2.084,0,1,1,2.947,0A2.086,2.086,0,0,1,3.386,265.147Zm0,0" transform="translate(0 -244.816)" fill="#cbcbcb"/>
  <path id="Path_16" data-name="Path 16" d="M91.108,392.3a.695.695,0,1,0,0,.982A.7.7,0,0,0,91.108,392.3Zm0,0" transform="translate(-85.757 -373.936)" fill="#cbcbcb"/>
  <path id="Path_17" data-name="Path 17" d="M288.4,282.83l-4.876-4.916-1.965,1.965,4.385,4.425-.982.982-4.385-4.425-1.965,1.965,4.876,4.916a3.473,3.473,0,1,0,4.912-4.912Zm0,0" transform="translate(-265.707 -265.04)" fill="#cbcbcb"/>
  <path id="Path_18" data-name="Path 18" d="M259.752,6.669l-2.345,2.444.982.982.982-.982,1.965,1.965L262.7,9.616a4.862,4.862,0,0,0,6.021-6.675l-.106-.222L265.8,5.528H263.84V3.563L266.649.755l-.222-.106a4.862,4.862,0,0,0-6.675,6.02Zm0,0" transform="translate(-245.483 -0.168)" fill="#cbcbcb"/>
</svg>
