<svg width="73" height="73" viewBox="0 0 73 73" fill="none" xmlns="http://www.w3.org/2000/svg">
<path d="M36.0531 0.549316C16.1113 0.549316 0.0924377 16.5682 0.0924377 36.51C0.0924377 56.4518 16.1113 72.4706 36.0531 72.4706C55.9949 72.4706 72.0138 56.4518 72.0138 36.51C72.0138 16.5682 55.9949 0.549316 36.0531 0.549316ZM57.3026 38.1446C57.3026 39.1253 56.6488 39.7791 55.668 39.7791H28.5341C27.8802 39.7791 27.3899 40.5964 27.8802 41.2502L34.4185 47.7886C35.0724 48.4424 35.0724 49.4231 34.4185 50.077L32.1301 52.3654C31.8032 52.6923 31.4763 52.8557 30.9859 52.8557C30.4955 52.8557 30.1686 52.6923 29.8417 52.3654L15.1305 37.6542C14.9671 37.3273 14.8036 37.0004 14.8036 36.51C14.8036 36.0196 14.9671 35.6927 15.294 35.3658L30.0052 20.6546C30.3321 20.3277 30.659 20.1642 31.1494 20.1642C31.6397 20.1642 31.9667 20.3277 32.2936 20.6546L34.582 22.943C35.2358 23.5968 35.2358 24.5776 34.582 25.2314L28.0437 31.7697C27.5533 32.2601 27.8802 33.2408 28.6975 33.2408H55.668C56.6488 33.2408 57.3026 33.8947 57.3026 34.8754V38.1446Z" fill="#1884E4"/>
</svg>
