<svg width="49" height="46" viewBox="0 0 49 46" fill="none" xmlns="http://www.w3.org/2000/svg">
<path d="M47.503 11.5218H45.509C44.675 11.5218 44.001 12.1968 44.001 13.0298V13.4068H42.816L40.354 1.7668C40.207 1.0698 39.592 0.570801 38.878 0.570801H10.133C9.42 0.570801 8.806 1.0698 8.657 1.7668L6.194 13.4088H5.01V13.0318C5.01 12.1988 4.334 11.5238 3.501 11.5238H1.507C0.674 11.5228 0 12.1988 0 13.0308V17.8078C0 18.6408 0.673 19.3158 1.507 19.3158H3.501C4.334 19.3158 5.01 18.6408 5.01 17.8078V15.4188H5.874V24.0928V40.0718C5.874 40.9048 6.548 41.5818 7.382 41.5818H8.034V43.3888C8.034 44.7218 9.115 45.8028 10.447 45.8028H12.656C13.991 45.8028 15.07 44.7218 15.07 43.3888V41.5818H33.924V43.3888C33.924 44.7218 35.006 45.8028 36.338 45.8028H38.55C39.883 45.8028 40.965 44.7218 40.965 43.3888V41.5818H41.616C42.448 41.5818 43.124 40.9048 43.124 40.0718V24.0938V15.4198H43.986V17.8088C43.986 18.6418 44.663 19.3168 45.497 19.3168H47.488C48.323 19.3168 48.999 18.6418 48.999 17.8088V13.0318C49.01 12.1968 48.334 11.5218 47.503 11.5218ZM11.465 36.1618C9.939 36.1618 8.699 34.9238 8.699 33.3948C8.699 31.8658 9.938 30.6258 11.465 30.6258C12.995 30.6258 14.233 31.8658 14.233 33.3948C14.233 34.9238 12.996 36.1618 11.465 36.1618ZM31.796 38.4218H17.215V37.1638H31.796V38.4218ZM31.796 35.9118H17.215V34.6518H31.796V35.9118ZM31.796 33.3948H17.215V32.1368H31.796V33.3948ZM31.796 30.8808H17.215V29.6228H31.796V30.8808ZM24.505 25.0428C18.933 25.0428 13.568 24.3188 8.892 22.9628V15.2338L11.355 3.5868H37.654L40.118 15.2328V22.9618C35.441 24.3198 30.076 25.0428 24.505 25.0428ZM37.545 36.1618C36.02 36.1618 34.777 34.9238 34.777 33.3948C34.777 31.8658 36.017 30.6258 37.545 30.6258C39.074 30.6258 40.313 31.8658 40.313 33.3948C40.311 34.9238 39.073 36.1618 37.545 36.1618Z" fill="#1884E4"/>
</svg>
