<svg width="50" height="43" viewBox="0 0 50 43" fill="none" xmlns="http://www.w3.org/2000/svg">
<path d="M48.2094 9.95234H47.1934V7.41334C47.1934 7.13134 46.9664 6.90734 46.6874 6.90734H42.5564V2.14534C42.5564 1.30334 41.8744 0.621338 41.0334 0.621338H8.41044C7.56844 0.621338 6.88644 1.30334 6.88644 2.14534V6.90634H2.75744C2.47744 6.90634 2.25044 7.13234 2.25044 7.41434V9.95334H1.23644C0.675436 9.95334 0.221436 10.4083 0.221436 10.9693V16.3013C0.221436 16.8623 0.675436 17.3173 1.23644 17.3173H2.25044V19.8563C2.25044 20.1373 2.47744 20.3633 2.75744 20.3633H6.88644V24.8273H6.84844C6.00644 24.8273 5.32544 25.5093 5.32544 26.3493V32.2733C5.32544 32.7773 5.57344 33.2203 5.95044 33.4983C5.57344 33.7753 5.32544 34.2213 5.32544 34.7253V37.1043C5.32544 37.9463 6.00744 38.6273 6.84844 38.6273H7.61244V41.0783C7.61244 41.6393 8.30144 42.0923 9.15344 42.0923H14.2914C15.1424 42.0923 15.8304 41.6393 15.8304 41.0783V38.6253H33.6084V41.0763C33.6084 41.6373 34.2974 42.0903 35.1534 42.0903H40.2904C41.1444 42.0903 41.8314 41.6373 41.8314 41.0763V38.6253H42.5954C43.4374 38.6253 44.1204 37.9413 44.1204 37.1023V34.7233C44.1204 34.2193 43.8704 33.7763 43.4934 33.4963C43.8704 33.2213 44.1204 32.7753 44.1204 32.2713V26.3473C44.1204 25.5053 43.4354 24.8243 42.5954 24.8243H42.5594V20.3623H46.6864C46.9674 20.3623 47.1954 20.1353 47.1954 19.8543V17.3153H48.2074C48.7714 17.3153 49.2244 16.8603 49.2244 16.2993V10.9673C49.2244 10.4073 48.7704 9.95234 48.2094 9.95234ZM6.88644 19.3483H3.26444V17.3163H4.27844C4.84044 17.3163 5.29444 16.8613 5.29444 16.3013V10.9683C5.29444 10.4073 4.84044 9.95334 4.27844 9.95334H3.26444V7.92234H6.88544L6.88644 19.3483ZM9.12844 37.3543C8.35643 37.3543 7.73144 36.7293 7.73144 35.9583C7.73144 35.1873 8.35843 34.5633 9.12844 34.5633C9.89844 34.5633 10.5244 35.1883 10.5244 35.9583C10.5244 36.7313 9.89944 37.3543 9.12844 37.3543ZM12.8514 37.3543C12.0794 37.3543 11.4554 36.7293 11.4554 35.9583C11.4554 35.1873 12.0814 34.5633 12.8514 34.5633C13.6234 34.5633 14.2474 35.1883 14.2474 35.9583C14.2474 36.7313 13.6234 37.3543 12.8514 37.3543ZM14.4804 31.6003H7.70944V27.4533H14.4804V31.6003ZM32.7624 33.6723H16.6804V31.8273H32.7624V33.6723ZM32.7624 30.7623H16.6804V28.4503H32.7624V30.7623ZM32.7624 27.3833H16.6804V25.0723H32.7624V27.3833ZM32.7624 24.0073H16.6804V21.6973H32.7624V24.0073ZM9.93344 14.4893V3.66934H39.5104V14.4893H9.93344ZM36.5944 37.3543C35.8194 37.3543 35.1984 36.7293 35.1984 35.9583C35.1984 35.1873 35.8234 34.5633 36.5944 34.5633C37.3654 34.5633 37.9894 35.1883 37.9894 35.9583C37.9894 36.7313 37.3664 37.3543 36.5944 37.3543ZM40.3154 37.3543C39.5444 37.3543 38.9214 36.7293 38.9214 35.9583C38.9214 35.1873 39.5464 34.5633 40.3154 34.5633C41.0904 34.5633 41.7134 35.1883 41.7134 35.9583C41.7134 36.7313 41.0864 37.3543 40.3154 37.3543ZM41.7334 31.6003H34.9624V27.4533H41.7334V31.6003ZM46.1784 9.95234H45.1624C44.6004 9.95234 44.1484 10.4073 44.1484 10.9683V16.3003C44.1484 16.8613 44.5994 17.3163 45.1624 17.3163H46.1784V19.3473H42.5544V7.92134H46.1784V9.95234Z" fill="#1884E4"/>
</svg>
