<svg id="loading-rt" xmlns="http://www.w3.org/2000/svg" width="328" height="328" viewBox="0 0 328 328">
  <g id="Group_1" data-name="Group 1">
    <path id="Path_1" data-name="Path 1" d="M173,258H154a15,15,0,0,0-15,15v40a15,15,0,0,0,15,15h19a15,15,0,0,0,15-15V273A15,15,0,0,0,173,258Z" fill="#1a76d3"/>
    <path id="Path_2" data-name="Path 2" d="M173,0H154a15,15,0,0,0-15,15V55a15,15,0,0,0,15,15h19a15,15,0,0,0,15-15V15A15,15,0,0,0,173,0Z" fill="#1a76d3"/>
    <path id="Path_3" data-name="Path 3" d="M90.834,223.536a15.043,15.043,0,0,0-21.213,0L41.164,251.993a15.043,15.043,0,0,0,0,21.213l13.63,13.63a15.043,15.043,0,0,0,21.213,0l28.457-28.457a15.043,15.043,0,0,0,0-21.213Z" fill="#1a76d3"/>
    <path id="Path_4" data-name="Path 4" d="M237.166,104.464a15.043,15.043,0,0,0,21.213,0l28.457-28.457a15.043,15.043,0,0,0,0-21.213l-13.63-13.63a15.043,15.043,0,0,0-21.213,0L223.536,69.621a15.043,15.043,0,0,0,0,21.213Z" fill="#1a76d3"/>
    <path id="Path_5" data-name="Path 5" d="M70,173V154a15,15,0,0,0-15-15H15A15,15,0,0,0,0,154v19a15,15,0,0,0,15,15H55A15,15,0,0,0,70,173Z" fill="#1a76d3"/>
    <path id="Path_6" data-name="Path 6" d="M313,139H273a15,15,0,0,0-15,15v19a15,15,0,0,0,15,15h40a15,15,0,0,0,15-15V154A15,15,0,0,0,313,139Z" fill="#1a76d3"/>
    <path id="Path_7" data-name="Path 7" d="M76.007,41.164a15.043,15.043,0,0,0-21.213,0l-13.63,13.63a15.043,15.043,0,0,0,0,21.213l28.457,28.457a15.043,15.043,0,0,0,21.213,0l13.63-13.63a15.043,15.043,0,0,0,0-21.213Z" fill="#1a76d3"/>
    <path id="Path_8" data-name="Path 8" d="M258.379,223.536a15.043,15.043,0,0,0-21.213,0l-13.63,13.63a15.043,15.043,0,0,0,0,21.213l28.457,28.457a15.043,15.043,0,0,0,21.213,0l13.63-13.63a15.043,15.043,0,0,0,0-21.213Z" fill="#1a76d3"/>
  </g>
</svg>
