<svg width="38" height="29" viewBox="0 0 38 29" fill="none" xmlns="http://www.w3.org/2000/svg">
<path d="M19.6892 0C19.7218 0.802005 19.7542 1.60401 19.7868 2.40601C19.1574 2.40601 18.8428 2.40601 18.2135 2.40601C18.246 1.60401 18.2785 0.802005 18.3109 0C17.0347 0 15.7585 0 14.4823 0C11.9168 9.66669 9.35085 19.3331 6.7854 29C10.2358 29 13.6862 29 17.1366 29C17.169 28.1979 17.2015 27.3959 17.234 26.594C18.4114 26.594 19.5889 26.594 20.7662 26.594C20.7989 27.396 20.8313 28.1979 20.8637 29C24.3141 29 27.7644 29 31.2148 29C28.6493 19.3333 26.0834 9.66678 23.5179 0C22.2418 0 20.9655 0 19.6892 0ZM18.0674 6.0085C18.6891 6.0085 19.3108 6.00817 19.9326 6.00833C20.0229 8.23843 20.1131 10.4687 20.2036 12.6987C19.4012 12.6987 18.5989 12.6987 17.7965 12.6987C17.8871 10.4688 17.9772 8.2386 18.0674 6.0085ZM17.3798 22.9914C17.47 20.7614 17.5604 18.5313 17.6507 16.3013C18.5503 16.3013 19.4499 16.3011 20.3493 16.3011C20.4397 18.5311 20.5301 20.7614 20.6203 22.9914C19.5402 22.9914 18.4599 22.9914 17.3798 22.9914Z" fill="#79849F"/>
<path d="M26.0274 0C25.5061 0 25.2453 0 24.724 0C27.9749 9.66669 31.2251 19.3333 34.4761 29C35.6507 29 36.8254 29 38 29C34.0093 19.3331 30.0184 9.66669 26.0274 0Z" fill="#79849F"/>
<path d="M11.9726 0C7.98163 9.66678 3.9906 19.3331 0 29C1.17467 29 2.34926 29 3.52392 29C6.77458 19.3333 10.0252 9.66678 13.276 0C12.7547 0 12.4939 0 11.9726 0Z" fill="#79849F"/>
</svg>
