<svg xmlns="http://www.w3.org/2000/svg" width="34.772" height="37.993" viewBox="0 0 34.772 37.993">
  <g id="icon" transform="translate(-1.926 0)">
    <path id="Path_4" data-name="Path 4" d="M34.935,9.29c-.31-3.033-.8-5.394-1.586-6.322-3.223-3.816-25.8-4.1-28.367,0-.627,1-1.067,3.356-1.362,6.327a1.912,1.912,0,0,0-1.694,1.9v3.715A1.915,1.915,0,0,0,3.18,16.7c-.173,5.852-.033,11.956.227,14.993,0,2.344,1.575,1.955,1.575,1.955H6.457v2.53a2.107,2.107,0,0,0,2.309,1.815,2.108,2.108,0,0,0,2.31-1.815v-2.53h17.17v2.53a2.107,2.107,0,0,0,2.31,1.815,2.107,2.107,0,0,0,2.309-1.815v-2.53h.485s1.853.254,1.972-.85c0-3.028.191-9.738.033-16.072a1.906,1.906,0,0,0,1.344-1.82V11.19A1.91,1.91,0,0,0,34.935,9.29ZM10.5,3.512H27.835V6.135H10.5Zm.248,27.148a2.464,2.464,0,1,1,2.465-2.465A2.464,2.464,0,0,1,10.744,30.66Zm17,0a2.464,2.464,0,1,1,2.464-2.465A2.466,2.466,0,0,1,27.742,30.66Zm3.133-10.787H7.456V7.59H30.875Z" transform="translate(0 0)" fill="#186db6"/>
  </g>
</svg>
