<svg xmlns="http://www.w3.org/2000/svg" width="80" height="94.5" viewBox="0 0 80 94.5">
  <g id="Path_2" data-name="Path 2" transform="translate(-251.209 -27.098)" fill="#186db6" stroke-miterlimit="10">
    <path d="M 291.2090148925781 120.0979995727539 C 289.5103759765625 120.0979995727539 288.4278259277344 118.3179244995117 287.6744995117188 116.7671279907227 C 286.9172668457031 115.208251953125 286.1774291992188 113.1675109863281 285.4619445800781 111.1939468383789 C 284.8872985839844 109.6088714599609 284.2930908203125 107.9698333740234 283.7278747558594 106.6969833374023 C 283.056396484375 105.1848831176758 282.6619567871094 104.7341613769531 282.5352783203125 104.6168823242188 C 278.3516845703125 103.6534271240234 274.3838806152344 102.003288269043 270.7393493652344 99.71109008789063 C 267.1289367675781 97.44034576416016 263.9369201660156 94.60471343994141 261.2519226074219 91.28293609619141 C 258.5426025390625 87.93099975585938 256.4314270019531 84.18424987792969 254.9770812988281 80.14675140380859 C 253.4720916748047 75.96865081787109 252.7089996337891 71.57841491699219 252.7089996337891 67.09799957275391 C 252.7089996337891 61.90132522583008 253.7271575927734 56.85924911499023 255.7352142333984 52.11181259155273 C 257.6744384765625 47.5271110534668 260.4502563476563 43.409912109375 263.985595703125 39.87458801269531 C 267.5209045410156 36.33926391601563 271.6381225585938 33.56343841552734 276.2228088378906 31.62421226501465 C 280.9702453613281 29.61616134643555 286.0123291015625 28.59799957275391 291.2090148925781 28.59799957275391 C 296.4059143066406 28.59799957275391 301.4481506347656 29.61616134643555 306.1956176757813 31.62421226501465 C 310.7803649902344 33.56342315673828 314.8975219726563 36.33926391601563 318.4328002929688 39.87459945678711 C 321.9680480957031 43.4099006652832 324.7438049316406 47.527099609375 326.6829528808594 52.11183547973633 C 328.6908874511719 56.85923767089844 329.7090148925781 61.90129852294922 329.7090148925781 67.09799957275391 C 329.7090148925781 71.64727783203125 328.9228515625 76.10099792480469 327.3724060058594 80.33546447753906 C 325.8742980957031 84.42693328857422 323.7023620605469 88.21283721923828 320.9169006347656 91.5880126953125 C 318.1543884277344 94.93538665771484 314.8763427734375 97.77334594726563 311.173828125 100.023063659668 C 307.4505004882813 102.2854156494141 303.4074096679688 103.88427734375 299.154541015625 104.7766265869141 C 299.0170288085938 104.9338073730469 298.6629943847656 105.4305191040039 298.0911254882813 106.8466491699219 C 297.5831298828125 108.1046371459961 297.0506286621094 109.7121124267578 296.5357055664063 111.2666625976563 C 295.8913879394531 113.2117614746094 295.2251586914063 115.2230758666992 294.5448303222656 116.7567901611328 C 293.8119506835938 118.4089889526367 292.842529296875 120.0979995727539 291.2090148925781 120.0979995727539 Z" stroke="none"/>
    <path d="M 291.2090148925781 30.09799957275391 C 270.7749938964844 30.09799957275391 254.208984375 46.66400146484375 254.208984375 67.09799957275391 C 254.208984375 84.70600128173828 266.5090026855469 99.44099426269531 282.9849853515625 103.1809997558594 C 285.6300048828125 103.7809982299805 288.3819885253906 118.5979995727539 291.2090148925781 118.5979995727539 C 293.7630004882813 118.5979995727539 296.2569885253906 103.8390045166016 298.6659851074219 103.3460006713867 C 315.5260009765625 99.89599609375 328.2090148925781 84.97799682617188 328.2090148925781 67.09799957275391 C 328.2090148925781 46.66400146484375 311.6440124511719 30.09799957275391 291.2090148925781 30.09799957275391 M 291.2090148925781 27.09799957275391 C 296.6077575683594 27.09799957275391 301.8465881347656 28.15603637695313 306.7799377441406 30.24270629882813 C 311.5434875488281 32.25754547119141 315.8209228515625 35.14132690429688 319.4934692382813 38.81394195556641 C 323.1659851074219 42.48652648925781 326.0496826171875 46.76398468017578 328.064453125 51.52751159667969 C 330.1510314941406 56.46080017089844 331.2090148925781 61.69947052001953 331.2090148925781 67.09799957275391 C 331.2090148925781 71.82376098632813 330.39208984375 76.45099639892578 328.7809448242188 80.8511962890625 C 327.2243041992188 85.10261535644531 324.9676818847656 89.03623962402344 322.0738220214844 92.54278564453125 C 319.2042541503906 96.01988983154297 315.7990112304688 98.96791076660156 311.9527282714844 101.3049774169922 C 308.2619934082031 103.5475311279297 304.268798828125 105.1627197265625 300.0722351074219 106.1117630004883 C 299.9159851074219 106.4008407592773 299.6763916015625 106.9018783569336 299.3498229980469 107.7421264648438 C 298.8997192382813 108.9002380371094 298.4218139648438 110.3430328369141 297.9595947265625 111.7383270263672 C 297.303955078125 113.7176208496094 296.6260070800781 115.7643127441406 295.9159851074219 117.3649978637695 C 295.4628601074219 118.3865280151367 295.0380859375 119.1423263549805 294.5792236328125 119.7435073852539 C 293.4093017578125 121.2762756347656 292.1007385253906 121.5979995727539 291.2090148925781 121.5979995727539 C 290.3305358886719 121.5979995727539 289.0279235839844 121.2925796508789 287.8110961914063 119.8375854492188 C 287.3091430664063 119.2373962402344 286.8231201171875 118.4474334716797 286.3252868652344 117.4225311279297 C 285.5337829589844 115.7931671142578 284.7803649902344 113.7149658203125 284.0517578125 111.7051849365234 C 283.5159912109375 110.2274017333984 283.0099792480469 108.8315582275391 282.5128173828125 107.6643676757813 C 282.1163330078125 106.7334747314453 281.8380432128906 106.2219848632813 281.6711730957031 105.9533767700195 C 277.5172424316406 104.9372711181641 273.5742797851563 103.2661285400391 269.9407348632813 100.9808349609375 C 266.1902160644531 98.62196350097656 262.8743896484375 95.67637634277344 260.0853576660156 92.22587585449219 C 257.2705383300781 88.74343872070313 255.0770263671875 84.85044860839844 253.5658264160156 80.65509033203125 C 252.001953125 76.31346893310547 251.208984375 71.75222015380859 251.208984375 67.09799957275391 C 251.208984375 61.69949340820313 252.2670288085938 56.46080017089844 254.3536987304688 51.52747344970703 C 256.3685607910156 46.76398468017578 259.2523193359375 42.48652648925781 262.9249267578125 38.81392669677734 C 266.5975036621094 35.14132690429688 270.8749694824219 32.25756072998047 275.6384887695313 30.24270629882813 C 280.5718078613281 28.15603637695313 285.8104858398438 27.09799957275391 291.2090148925781 27.09799957275391 Z" stroke="none" fill="#fff"/>
  </g>
</svg>
