<svg id="Слой_1" data-name="Слой 1" xmlns="http://www.w3.org/2000/svg" viewBox="0 0 129 129"><defs><style>.cls-1{fill:#fff;}.cls-2{fill:none;stroke:#c7c7c7;}.cls-3{fill:#186db6;}</style></defs><title>bus</title><circle class="cls-1" cx="64.05" cy="60.96" r="60"/><circle class="cls-2" cx="64.05" cy="60.96" r="59.5"/><path class="cls-3" d="M87.35,47.11C86.88,42.54,86.13,39,85,37.58c-4.86-5.75-38.9-6.17-42.77,0-.94,1.51-1.61,5.06-2,9.54A2.89,2.89,0,0,0,37.58,50v5.6a2.89,2.89,0,0,0,1.89,2.7c-.26,8.82,0,18,.35,22.6,0,3.54,2.37,3,2.37,3h2.22v3.81c0,1.52,1.56,2.74,3.49,2.74s3.48-1.22,3.48-2.74V83.83H77.26v3.81c0,1.52,1.56,2.74,3.48,2.74s3.48-1.22,3.48-2.74V83.83H85s2.79.38,3-1.28c0-4.57.28-14.68,0-24.23a2.88,2.88,0,0,0,2-2.74V50A2.88,2.88,0,0,0,87.35,47.11ZM50.5,38.4H76.64v4H50.5Zm.38,40.93a3.72,3.72,0,1,1,3.71-3.72A3.73,3.73,0,0,1,50.88,79.33Zm25.62,0a3.72,3.72,0,1,1,3.72-3.72A3.73,3.73,0,0,1,76.5,79.33Zm4.73-16.27H45.92V44.55H81.23Z"/></svg>