<svg xmlns="http://www.w3.org/2000/svg" width="84.385" height="96.379" viewBox="0 0 84.385 96.379">
  <g id="Path_3" data-name="Path 3" transform="translate(-577.24 -21.641)" fill="#186db6" stroke-linecap="round" stroke-linejoin="round">
    <path d="M 578.9534301757813 117.5605850219727 L 578.9534301757813 114.5931243896484 L 578.9534301757813 25.06704902648926 L 578.9534301757813 22.09958648681641 L 581.5233154296875 23.58332252502441 L 659.05517578125 68.34635925292969 L 661.6250610351563 69.83008575439453 L 659.05517578125 71.31381225585938 L 581.5233154296875 116.0768508911133 L 578.9534301757813 117.5605850219727 Z" stroke="none"/>
    <path d="M 580.6666870117188 25.06703948974609 L 580.6666870117188 114.5931243896484 L 658.1985473632813 69.83008575439453 L 580.6666870117188 25.06703948974609 M 580.6666870117188 21.64051818847656 C 581.25830078125 21.64051818847656 581.849853515625 21.79354095458984 582.3799438476563 22.09958648681641 L 659.9118041992188 66.86262512207031 C 660.9719848632813 67.47471618652344 661.6250610351563 68.60590362548828 661.6250610351563 69.83008575439453 C 661.6250610351563 71.05426788330078 660.9719848632813 72.18545532226563 659.9118041992188 72.79754638671875 L 582.3799438476563 117.5605850219727 C 581.849853515625 117.8666305541992 581.25830078125 118.0196533203125 580.6666870117188 118.0196533203125 C 580.0750732421875 118.0196533203125 579.4835205078125 117.8666305541992 578.9534301757813 117.5605850219727 C 577.8932495117188 116.9485015869141 577.2401733398438 115.8173141479492 577.2401733398438 114.5931243896484 L 577.2401733398438 25.06703948974609 C 577.2401733398438 23.84285736083984 577.8932495117188 22.711669921875 578.9534301757813 22.09958648681641 C 579.4835205078125 21.79354095458984 580.0750732421875 21.64051818847656 580.6666870117188 21.64051818847656 Z" stroke="none" fill="#fff"/>
  </g>
</svg>
